<?xml version="1.0" encoding="UTF-8"?>
<svg version="1.1" xmlns="http://www.w3.org/2000/svg" width="149" height="149">
<path d="M0 0 C1.15113281 0.165 2.30226563 0.33 3.48828125 0.5 C19.34480208 3.09146408 33.10275156 11.36922298 43.40625 23.73828125 C54.34148554 39.25666698 56.93367876 57.07134448 54.5390625 75.55859375 C50.61404589 92.94410849 39.88921702 106.54924539 25 116 C9.24421507 124.49027146 -7.64027223 125.94913238 -25 122 C-41.43098076 116.71566448 -55.17854033 106.45840407 -63.53125 91.23046875 C-71.17109274 74.42687847 -71.95189623 57.36113082 -66 40 C-59.35379442 22.86073615 -47.89491929 11.80371839 -31.25 4.25 C-21.10570503 0.27132847 -10.78583177 -2.039271 0 0 Z M-39.59765625 25.953125 C-43.93010662 32.276813 -45.8688674 39.42844119 -45 47 C-43.34774876 54.07327392 -39.73240016 59.59669843 -33.59765625 63.546875 C-28.80760785 66.11117159 -25.50544184 67.26406916 -20 67 C-19.96261719 66.19175781 -19.92523438 65.38351563 -19.88671875 64.55078125 C-19.82097656 63.48214844 -19.75523438 62.41351563 -19.6875 61.3125 C-19.62949219 60.25675781 -19.57148437 59.20101562 -19.51171875 58.11328125 C-18.95457778 54.72365262 -18.05341299 52.73623466 -16 50 C-13.375 49.125 -13.375 49.125 -11 49 C-9.41596476 50.58403524 -9.78025065 52.2771638 -9.68359375 54.47265625 C-9.64169922 55.37177734 -9.59980469 56.27089844 -9.55664062 57.19726562 C-9.51732422 58.14279297 -9.47800781 59.08832031 -9.4375 60.0625 C-9.39431641 61.01189453 -9.35113281 61.96128906 -9.30664062 62.93945312 C-9.20020724 65.29281353 -9.09818992 67.64628354 -9 70 C-8.01 70 -7.02 70 -6 70 C-5.33522505 66.57804371 -4.92161623 63.24321121 -4.7890625 59.765625 C-4.74652344 58.65767578 -4.74652344 58.65767578 -4.703125 57.52734375 C-4.65051468 55.99375297 -4.60640823 54.45984957 -4.5703125 52.92578125 C-4.48668686 50.94315671 -4.25328595 48.96815638 -4 47 C0.92557752 43.71628165 6.24464007 44.49027642 12 45 C22.69580525 47.33795743 31.82124556 53.98931645 38 63 C39.19253273 65.30827357 40.10131831 67.55358873 41 70 C41.33 70 41.66 70 42 70 C42.4972346 54.12532494 40.92589017 41.0343572 29.78515625 28.75390625 C20.14996983 19.28738831 10.66827523 13.27414879 -3 13 C-3.85851562 12.96132813 -4.71703125 12.92265625 -5.6015625 12.8828125 C-18.02843624 12.53655286 -31.03249091 16.4874655 -39.59765625 25.953125 Z M-56 56 C-56.49840498 70.87831161 -55.42938644 81.35274465 -45 93 C-44.34 93 -43.68 93 -43 93 C-42.76925781 93.7528125 -42.53851563 94.505625 -42.30078125 95.28125 C-38.83991019 102.51478231 -27.92839998 106.53149715 -20.71484375 109.11328125 C-6.92001057 112.40605426 6.35764663 110.40364782 18.68359375 103.49609375 C24.82047123 99.31414932 27.97567969 94.09979008 30 87 C31.13335345 79.53967338 29.77031674 73.09916787 25.55859375 66.8671875 C21.56905022 61.85017452 17.23727556 58.67502806 11 57 C8.31744613 56.87424544 8.31744613 56.87424544 6 57 C5.95101562 57.80824219 5.90203125 58.61648437 5.8515625 59.44921875 C5.77679688 60.51785156 5.70203125 61.58648437 5.625 62.6875 C5.55539063 63.74324219 5.48578125 64.79898438 5.4140625 65.88671875 C5.00604253 68.95456703 4.44342556 71.26586625 3 74 C0.0625 75 0.0625 75 -3 75 C-4.6875 73.5625 -4.6875 73.5625 -6 72 C-6.99 72 -7.98 72 -9 72 C-9.33 73.98 -9.66 75.96 -10 78 C-20.0932746 81.11973942 -28.47394946 79.48202083 -38 75 C-40.20028148 73.56135442 -42.22799963 72.04965906 -44.24609375 70.3671875 C-45.98073542 68.91564196 -45.98073542 68.91564196 -48.15625 67.9609375 C-50.84319057 66.56054051 -51.03895785 64.81905698 -52 62 C-52.98482022 59.99248185 -53.98152514 57.99065541 -55 56 C-55.33 56 -55.66 56 -56 56 Z " fill="#DEDEDE" transform="translate(83,13)"/>
<path d="M0 0 C1.38058594 -0.01160156 1.38058594 -0.01160156 2.7890625 -0.0234375 C8.09937455 -0.00826518 12.55873841 0.48994772 17.625 2.25 C19.23181641 2.78367187 19.23181641 2.78367187 20.87109375 3.328125 C27.6744596 5.82630095 33.22523897 8.40462922 38.625 13.25 C39.38683594 13.88550781 40.14867188 14.52101563 40.93359375 15.17578125 C47.33100209 20.9218935 50.27657453 27.02461031 52.625 35.25 C52.625 35.91 52.625 36.57 52.625 37.25 C53.285 37.25 53.945 37.25 54.625 37.25 C57.81734573 47.02655881 57.7886189 57.49550838 54.625 67.25 C53.305 67.25 51.985 67.25 50.625 67.25 C50.31046875 66.45335938 49.9959375 65.65671875 49.671875 64.8359375 C46.327569 56.55575819 43.76925031 50.80663913 36.625 45.25 C36.625 44.59 36.625 43.93 36.625 43.25 C35.820625 42.981875 35.01625 42.71375 34.1875 42.4375 C32.34998364 41.82499455 30.51271412 41.2049938 28.71484375 40.484375 C21.77378205 37.83768979 15.01786091 37.60887674 7.625 37.25 C7.625 45.83 7.625 54.41 7.625 63.25 C8.945 63.25 10.265 63.25 11.625 63.25 C12.285 56.98 12.945 50.71 13.625 44.25 C22.79980435 44.25 29.76908851 46.28572356 36.4375 52.75 C38.70764126 55.03517531 39.58423462 56.12770387 40.625 59.25 C42.11 60.24 42.11 60.24 43.625 61.25 C46.39662766 69.56488297 44.84634271 78.33086584 41.625 86.25 C40.965 86.25 40.305 86.25 39.625 86.25 C39.41875 86.971875 39.2125 87.69375 39 88.4375 C37.21148552 92.09582507 34.84533329 93.8025467 31.625 96.25 C30.99980469 96.75917969 30.37460938 97.26835938 29.73046875 97.79296875 C22.31837908 102.92229982 12.57877978 102.53290893 3.9375 102.5625 C2.96385498 102.56789795 1.99020996 102.5732959 0.98706055 102.57885742 C-12.70390954 102.44509975 -23.3073517 98.74668964 -33.1875 88.9375 C-37.55873659 84.33619832 -41.18045178 79.71725561 -44.375 74.25 C-44.81473145 73.52288818 -45.25446289 72.79577637 -45.70751953 72.04663086 C-49.42512219 65.37993485 -50.09030977 59.93041568 -49.875 52.375 C-49.87757812 51.35664062 -49.88015625 50.33828125 -49.8828125 49.2890625 C-49.77561082 41.14173489 -49.77561082 41.14173489 -46.375 37.25 C-45.385 37.58 -44.395 37.91 -43.375 38.25 C-42.5991484 40.40774577 -41.92850015 42.60379986 -41.3125 44.8125 C-38.88244513 52.3538849 -35.28135618 56.40177462 -28.375 60.25 C-24.11514861 62.17880643 -19.81809777 63.79804799 -15.375 65.25 C-14.385 65.58 -13.395 65.91 -12.375 66.25 C-8.745 66.58 -5.115 66.91 -1.375 67.25 C-1.375 58.67 -1.375 50.09 -1.375 41.25 C-5.71488693 43.82407753 -5.71488693 43.82407753 -6.203125 48.04296875 C-6.36200031 49.50594559 -6.50205015 50.97106693 -6.625 52.4375 C-6.70234375 53.18708984 -6.7796875 53.93667969 -6.859375 54.70898438 C-7.04744395 56.55441097 -7.21338576 58.4020687 -7.375 60.25 C-17.13955023 60.50615294 -23.82289494 57.53297968 -31.421875 51.2890625 C-36.20386811 46.2966617 -37.57202485 40.38805574 -37.75 33.625 C-37.66194227 31.83113817 -37.53954985 30.038468 -37.375 28.25 C-37.30345703 27.20005859 -37.30345703 27.20005859 -37.23046875 26.12890625 C-35.87542956 17.14951319 -27.46511657 10.85926163 -20.625 5.75 C-13.59023808 0.73104705 -8.48698491 -0.07072487 0 0 Z M-28.97265625 16.203125 C-33.30510662 22.526813 -35.2438674 29.67844119 -34.375 37.25 C-32.72274876 44.32327392 -29.10740016 49.84669843 -22.97265625 53.796875 C-18.18260785 56.36117159 -14.88044184 57.51406916 -9.375 57.25 C-9.33761719 56.44175781 -9.30023438 55.63351563 -9.26171875 54.80078125 C-9.19597656 53.73214844 -9.13023438 52.66351563 -9.0625 51.5625 C-9.00449219 50.50675781 -8.94648437 49.45101562 -8.88671875 48.36328125 C-8.32957778 44.97365262 -7.42841299 42.98623466 -5.375 40.25 C-2.75 39.375 -2.75 39.375 -0.375 39.25 C1.20903524 40.83403524 0.84474935 42.5271638 0.94140625 44.72265625 C0.98330078 45.62177734 1.02519531 46.52089844 1.06835938 47.44726562 C1.10767578 48.39279297 1.14699219 49.33832031 1.1875 50.3125 C1.23068359 51.26189453 1.27386719 52.21128906 1.31835938 53.18945312 C1.42479276 55.54281353 1.52681008 57.89628354 1.625 60.25 C2.615 60.25 3.605 60.25 4.625 60.25 C5.28977495 56.82804371 5.70338377 53.49321121 5.8359375 50.015625 C5.87847656 48.90767578 5.87847656 48.90767578 5.921875 47.77734375 C5.97448532 46.24375297 6.01859177 44.70984957 6.0546875 43.17578125 C6.13831314 41.19315671 6.37171405 39.21815638 6.625 37.25 C11.55057752 33.96628165 16.86964007 34.74027642 22.625 35.25 C33.32080525 37.58795743 42.44624556 44.23931645 48.625 53.25 C49.81753273 55.55827357 50.72631831 57.80358873 51.625 60.25 C51.955 60.25 52.285 60.25 52.625 60.25 C53.1222346 44.37532494 51.55089017 31.2843572 40.41015625 19.00390625 C30.77496983 9.53738831 21.29327523 3.52414879 7.625 3.25 C6.76648438 3.21132813 5.90796875 3.17265625 5.0234375 3.1328125 C-7.40343624 2.78655286 -20.40749091 6.7374655 -28.97265625 16.203125 Z M-45.375 46.25 C-45.87340498 61.12831161 -44.80438644 71.60274465 -34.375 83.25 C-33.715 83.25 -33.055 83.25 -32.375 83.25 C-32.14425781 84.0028125 -31.91351563 84.755625 -31.67578125 85.53125 C-28.21491019 92.76478231 -17.30339998 96.78149715 -10.08984375 99.36328125 C3.70498943 102.65605426 16.98264663 100.65364782 29.30859375 93.74609375 C35.44547123 89.56414932 38.60067969 84.34979008 40.625 77.25 C41.75835345 69.78967338 40.39531674 63.34916787 36.18359375 57.1171875 C32.19405022 52.10017452 27.86227556 48.92502806 21.625 47.25 C18.94244613 47.12424544 18.94244613 47.12424544 16.625 47.25 C16.57601562 48.05824219 16.52703125 48.86648437 16.4765625 49.69921875 C16.40179688 50.76785156 16.32703125 51.83648437 16.25 52.9375 C16.18039063 53.99324219 16.11078125 55.04898438 16.0390625 56.13671875 C15.63104253 59.20456703 15.06842556 61.51586625 13.625 64.25 C10.6875 65.25 10.6875 65.25 7.625 65.25 C5.9375 63.8125 5.9375 63.8125 4.625 62.25 C3.635 62.25 2.645 62.25 1.625 62.25 C1.295 64.23 0.965 66.21 0.625 68.25 C-9.4682746 71.36973942 -17.84894946 69.73202083 -27.375 65.25 C-29.57528148 63.81135442 -31.60299963 62.29965906 -33.62109375 60.6171875 C-35.35573542 59.16564196 -35.35573542 59.16564196 -37.53125 58.2109375 C-40.21819057 56.81054051 -40.41395785 55.06905698 -41.375 52.25 C-42.35982022 50.24248185 -43.35652514 48.24065541 -44.375 46.25 C-44.705 46.25 -45.035 46.25 -45.375 46.25 Z " fill="#7D7D7D" transform="translate(72.375,22.75)"/>
<path d="M0 0 C1.15113281 0.165 2.30226563 0.33 3.48828125 0.5 C19.34480208 3.09146408 33.10275156 11.36922298 43.40625 23.73828125 C54.34148554 39.25666698 56.93367876 57.07134448 54.5390625 75.55859375 C50.61404589 92.94410849 39.88921702 106.54924539 25 116 C9.24421507 124.49027146 -7.64027223 125.94913238 -25 122 C-41.43098076 116.71566448 -55.17854033 106.45840407 -63.53125 91.23046875 C-71.17109274 74.42687847 -71.95189623 57.36113082 -66 40 C-59.35379442 22.86073615 -47.89491929 11.80371839 -31.25 4.25 C-21.10570503 0.27132847 -10.78583177 -2.039271 0 0 Z M-49 21 C-49.82757813 21.81339844 -50.65515625 22.62679687 -51.5078125 23.46484375 C-56.0343778 28.21690216 -58.65139895 32.91921609 -61 39 C-61.32355469 39.60787354 -61.64710937 40.21574707 -61.98046875 40.84204102 C-65.3193034 47.90908112 -65.388475 56.19964281 -65.375 63.875 C-65.37338867 64.83664063 -65.37177734 65.79828125 -65.37011719 66.7890625 C-65.20344447 76.46261647 -63.32367315 85.41159222 -57 93 C-56.34 93 -55.68 93 -55 93 C-54.95488281 93.69867188 -54.90976562 94.39734375 -54.86328125 95.1171875 C-53.67128985 99.09768366 -51.1239691 101.34454165 -48.1875 104.125 C-47.65318359 104.64964844 -47.11886719 105.17429687 -46.56835938 105.71484375 C-41.83003502 110.31911957 -37.7914041 113.26094277 -31.5 115.5625 C-25.23186912 117.86991974 -25.23186912 117.86991974 -23.11914062 119.05517578 C-19.01656055 120.8843215 -14.42215272 120.33634666 -10 120.3125 C-8.44321533 120.30621582 -8.44321533 120.30621582 -6.85498047 120.29980469 C0.45740624 120.19198283 7.09978383 119.57504028 14 117 C14.76699219 116.73316406 15.53398438 116.46632813 16.32421875 116.19140625 C27.83359602 111.67201727 38.38606824 102.88907831 44.1171875 91.84765625 C44.77499418 90.24382863 45.39133254 88.62311324 46 87 C46.48339844 86.525625 46.96679688 86.05125 47.46484375 85.5625 C53.13343928 79.79293712 52.4192519 69.7809499 52.35302734 62.25195312 C52.03410971 50.56901361 49.36216553 40.38522177 44 30 C43.34 30 42.68 30 42 30 C41.75636719 29.26910156 41.51273437 28.53820312 41.26171875 27.78515625 C38.02479816 20.63987953 30.96934612 15.27969229 24 12 C23.236875 11.814375 22.47375 11.62875 21.6875 11.4375 C20 11 20 11 18 8 C16.13197679 7.01903102 16.13197679 7.01903102 13.9375 6.375 C13.22464844 6.13523437 12.51179688 5.89546875 11.77734375 5.6484375 C-11.6449758 0.17993533 -32.014641 3.9416702 -49 21 Z " fill="#878787" transform="translate(83,13)"/>
<path d="M0 0 C1.14726563 0.16628906 2.29453125 0.33257812 3.4765625 0.50390625 C19.33680537 3.07190891 33.10542484 11.37243218 43.40625 23.73828125 C54.25609709 39.13549072 57.35623549 57.53011213 54.36328125 75.91015625 C53.48907525 79.41977349 52.62011865 82.75976271 51 86 C50.34 86 49.68 86 49 86 C49.14168137 84.56208484 49.28851043 83.1246763 49.4375 81.6875 C49.55931641 80.48673828 49.55931641 80.48673828 49.68359375 79.26171875 C50 77 50 77 51 74 C51.7218244 59.93830541 51.21128371 46.50712709 44.76953125 33.671875 C44 32 44 32 44 30 C43.34 30 42.68 30 42 30 C40.66796875 28.42578125 40.66796875 28.42578125 39.1875 26.3125 C34.14054302 19.40036327 29.14464545 15.01312213 21.125 11.875 C19 11 19 11 18 9 C16.19745259 8.11786291 16.19745259 8.11786291 14 7.4375 C12.9171875 7.06431641 12.9171875 7.06431641 11.8125 6.68359375 C-3.70895373 2.91101819 -20.32454202 3.75109531 -35 10 C-35.66 10.66 -36.32 11.32 -37 12 C-37.74378906 12.26554687 -38.48757812 12.53109375 -39.25390625 12.8046875 C-42.72846066 14.31708245 -45.2125573 16.55996567 -47.9375 19.125 C-48.46601562 19.6192749 -48.99453125 20.1135498 -49.5390625 20.62280273 C-56.60670636 27.35124332 -60.7317751 33.79086849 -64 43 C-64.58150379 44.54235769 -65.16467185 46.08408961 -65.75 47.625 C-66.1625 48.73875 -66.575 49.8525 -67 51 C-67.33 51 -67.66 51 -68 51 C-67.18396419 36.85537938 -59.39841396 25.02791807 -49.5 15.3125 C-36.57431352 4.31778498 -17.03271779 -3.58997283 0 0 Z " fill="#777777" transform="translate(83,13)"/>
<path d="M0 0 C9.17480435 0 16.14408851 2.03572356 22.8125 8.5 C25.08264126 10.78517531 25.95923462 11.87770387 27 15 C27.99 15.66 28.98 16.32 30 17 C32.77162766 25.31488297 31.22134271 34.08086584 28 42 C27.34 42 26.68 42 26 42 C25.79375 42.721875 25.5875 43.44375 25.375 44.1875 C23.58648552 47.84582507 21.22033329 49.5525467 18 52 C17.21625 52.598125 16.4325 53.19625 15.625 53.8125 C14.820625 54.4003125 14.820625 54.4003125 14 55 C13.34 54.67 12.68 54.34 12 54 C12.763125 53.443125 13.52625 52.88625 14.3125 52.3125 C17.04712775 49.95944822 18.24314103 48.11035747 20 45 C20.52980469 44.08863281 21.05960938 43.17726562 21.60546875 42.23828125 C25.64745985 34.76309277 27.38694677 29.2130705 25.51953125 20.84765625 C23.64954008 14.94301747 20.24737888 9.86811581 14.8203125 6.74609375 C10.66332347 4.84955498 6.36651379 3.3435427 2 2 C2.04640625 2.74765625 2.0928125 3.4953125 2.140625 4.265625 C2.17671875 5.25046875 2.2128125 6.2353125 2.25 7.25 C2.29640625 8.22453125 2.3428125 9.1990625 2.390625 10.203125 C2 13 2 13 -2 17 C-1.34 11.39 -0.68 5.78 0 0 Z " fill="#808080" transform="translate(86,67)"/>
<path d="M0 0 C0.5625 1.9375 0.5625 1.9375 1 4 C0.67 4.33 0.34 4.66 0 5 C-0.46949261 12.94861913 -0.11699982 20.32587564 2 28 C2.598125 28.103125 3.19625 28.20625 3.8125 28.3125 C6.34730462 29.10915288 7.17409698 30.1143067 9 32 C14.06021351 35.01348343 19.05370354 37.53055554 25 38 C24.94779297 36.78763672 24.94779297 36.78763672 24.89453125 35.55078125 C24.86746094 34.48214844 24.84039062 33.41351563 24.8125 32.3125 C24.76029297 30.72888672 24.76029297 30.72888672 24.70703125 29.11328125 C25.12616998 24.65923372 26.88501354 22.11498646 30 19 C31.32 19 32.64 19 34 19 C35.07268883 22.2180665 35.12923759 24.56293914 35.1328125 27.9453125 C35.13474609 29.68361328 35.13474609 29.68361328 35.13671875 31.45703125 C35.13285156 32.66746094 35.12898438 33.87789062 35.125 35.125 C35.13080078 36.95224609 35.13080078 36.95224609 35.13671875 38.81640625 C35.13542969 39.97269531 35.13414063 41.12898438 35.1328125 42.3203125 C35.13168457 43.38523926 35.13055664 44.45016602 35.12939453 45.54736328 C35 48 35 48 34 49 C31.30345146 49.07319621 28.63308542 49.09242537 25.9375 49.0625 C24.79958008 49.05573242 24.79958008 49.05573242 23.63867188 49.04882812 C21.75908129 49.0370068 19.87953101 49.01907078 18 49 C18 48.34 18 47.68 18 47 C16.515 46.505 16.515 46.505 15 46 C20.94 46.66 26.88 47.32 33 48 C33 39.42 33 30.84 33 22 C28.66011307 24.57407753 28.66011307 24.57407753 28.171875 28.79296875 C28.01299969 30.25594559 27.87294985 31.72106693 27.75 33.1875 C27.63398437 34.31188477 27.63398437 34.31188477 27.515625 35.45898438 C27.32755605 37.30441097 27.16161424 39.1520687 27 41 C17.23544977 41.25615294 10.55210506 38.28297968 2.953125 32.0390625 C-1.82886811 27.0466617 -3.19702485 21.13805574 -3.375 14.375 C-2.93629985 2.93629985 -2.93629985 2.93629985 0 0 Z " fill="#8E8E8E" transform="translate(38,42)"/>
<path d="M0 0 C7.97192177 1.74255358 13.9973965 5.57982733 20 11 C20.68964844 11.58394531 21.37929687 12.16789062 22.08984375 12.76953125 C24.59180164 15.69104037 25.4525249 18.53769849 26.625 22.1875 C27.36495536 24.47570589 28.14508534 26.75221419 29 29 C29.66 29.33 30.32 29.66 31 30 C31 21.09 31 12.18 31 3 C34.28468406 7.92702609 34.1579265 12.54310548 34.1875 18.375 C34.20167969 19.64085938 34.21585938 20.90671875 34.23046875 22.2109375 C33.98885461 26.18323775 33.22893265 29.24034042 32 33 C30.68 33 29.36 33 28 33 C27.52820313 31.80503906 27.52820313 31.80503906 27.046875 30.5859375 C23.702569 22.30575819 21.14425031 16.55663913 14 11 C14 10.34 14 9.68 14 9 C13.195625 8.731875 12.39125 8.46375 11.5625 8.1875 C9.72498364 7.57499455 7.88771412 6.9549938 6.08984375 6.234375 C-0.85121795 3.58768979 -7.60713909 3.35887674 -15 3 C-15 11.58 -15 20.16 -15 29 C-15.33 29 -15.66 29 -16 29 C-16.08674429 24.54178834 -16.14030513 20.08379196 -16.1875 15.625 C-16.21263672 14.35398437 -16.23777344 13.08296875 -16.26367188 11.7734375 C-16.27333984 10.56171875 -16.28300781 9.35 -16.29296875 8.1015625 C-16.3086792 6.98088379 -16.32438965 5.86020508 -16.34057617 4.70556641 C-16.22818604 3.81272949 -16.1157959 2.91989258 -16 2 C-11.07442248 -1.28371835 -5.75535993 -0.50972358 0 0 Z " fill="#858585" transform="translate(95,57)"/>
<path d="M0 0 C0.33 0 0.66 0 1 0 C1 8.58 1 17.16 1 26 C2.65 26 4.3 26 6 26 C6.309375 25.38125 6.61875 24.7625 6.9375 24.125 C7.625 22.75 8.3125 21.375 9 20 C9.2275015 18.12943209 9.40962811 16.25314042 9.5625 14.375 C9.64628906 13.37210938 9.73007813 12.36921875 9.81640625 11.3359375 C9.90728516 10.17964844 9.90728516 10.17964844 10 9 C11.32 9.33 12.64 9.66 14 10 C13.01 10 12.02 10 11 10 C11.05220703 11.19496094 11.05220703 11.19496094 11.10546875 12.4140625 C11.39662696 23.81082675 11.39662696 23.81082675 8 28 C5 29.0625 5 29.0625 2 29 C0.3125 27.625 0.3125 27.625 -1 26 C-1.99 25.67 -2.98 25.34 -4 25 C-4 26.98 -4 28.96 -4 31 C-11.08721808 34.93734338 -17.16350777 34.27657074 -24.87109375 32.2421875 C-33.46843627 29.40422978 -39.92711903 24.62496106 -46 18 C-46.33 17.34 -46.66 16.68 -47 16 C-42.57238086 17.39153744 -40.0443745 19.52071486 -37 23 C-37 23.66 -37 24.32 -37 25 C-36.195625 25.103125 -35.39125 25.20625 -34.5625 25.3125 C-30.21752614 26.15100373 -26.16542473 27.52821659 -22 29 C-22 29.66 -22 30.32 -22 31 C-16.72 30.67 -11.44 30.34 -6 30 C-6 20.76 -6 11.52 -6 2 C-5.34 2.33 -4.68 2.66 -4 3 C-4 9.6 -4 16.2 -4 23 C-3.01 23 -2.02 23 -1 23 C-0.67 15.41 -0.34 7.82 0 0 Z " fill="#767676" transform="translate(78,60)"/>
<path d="M0 0 C1.37562854 1.28965176 2.70766393 2.62689293 4 4 C4 4.66 4 5.32 4 6 C4.66 6 5.32 6 6 6 C6.39316406 6.88300781 6.78632813 7.76601562 7.19140625 8.67578125 C9.0880498 12.16183667 11.09806566 14.43346218 13.9375 17.1875 C14.79214844 18.02667969 15.64679687 18.86585937 16.52734375 19.73046875 C20.63995225 23.50523264 24.02597409 25.54279917 29.3125 27.4375 C32.96858121 28.74849717 36.03878897 30.02463008 39.328125 32.11328125 C43.54781548 34.607295 47.62818921 34.66474227 52.4375 34.75 C53.67790039 34.79447266 53.67790039 34.79447266 54.94335938 34.83984375 C56.96173177 34.9098451 58.98086623 34.95726701 61 35 C59 37 59 37 57.07421875 37.265625 C38.8096076 37.14605308 22.65480807 31.88293939 8.875 19.5625 C5.41958857 15.93390566 5.08634463 12.92164411 5 8 C4.01 7.67 3.02 7.34 2 7 C0 4 0 4 0 0 Z " fill="#828282" transform="translate(22,100)"/>
<path d="M0 0 C0.91072266 -0.00128906 1.82144531 -0.00257812 2.75976562 -0.00390625 C3.70916016 -0.00003906 4.65855469 0.00382812 5.63671875 0.0078125 C6.57451172 0.00394531 7.51230469 0.00007813 8.47851562 -0.00390625 C13.2063178 0.00275732 17.67560502 0.15169804 22.32421875 1.1328125 C22.32421875 1.4628125 22.32421875 1.7928125 22.32421875 2.1328125 C21.6787207 2.12757568 21.03322266 2.12233887 20.36816406 2.11694336 C17.4368589 2.09612593 14.50556932 2.08313716 11.57421875 2.0703125 C10.5584375 2.06193359 9.54265625 2.05355469 8.49609375 2.04492188 C7.51640625 2.04169922 6.53671875 2.03847656 5.52734375 2.03515625 C4.62661133 2.02991943 3.72587891 2.02468262 2.79785156 2.01928711 C0.49032071 2.12518938 -1.4671253 2.48148437 -3.67578125 3.1328125 C-3.67578125 3.7928125 -3.67578125 4.4528125 -3.67578125 5.1328125 C-4.60519531 5.5453125 -5.53460938 5.9578125 -6.4921875 6.3828125 C-15.67232059 10.60644256 -22.86121103 14.70688127 -26.61328125 24.6328125 C-28.88206191 32.87651863 -27.39458436 39.23533681 -24.67578125 47.1328125 C-25.33578125 47.1328125 -25.99578125 47.1328125 -26.67578125 47.1328125 C-30.24494481 38.50733391 -31.43891475 28.85462214 -28.67578125 19.7578125 C-24.66829041 11.05636247 -15.7383736 5.62650291 -7.67578125 1.1328125 C-4.80416271 0.17560632 -2.98208833 0.0040727 0 0 Z " fill="#949494" transform="translate(66.67578125,22.8671875)"/>
<path d="M0 0 C1 1 2 2 3 3 C3.52335938 3.46664062 4.04671875 3.93328125 4.5859375 4.4140625 C6.28438401 6.31895003 6.87037766 7.94528191 7.625 10.375 C7.86476562 11.12523437 8.10453125 11.87546875 8.3515625 12.6484375 C11.82600444 25.24852212 11.92100146 42.15799708 6 54 C5.34 54 4.68 54 4 54 C4.14168137 52.56208484 4.28851043 51.1246763 4.4375 49.6875 C4.51871094 48.88699219 4.59992188 48.08648437 4.68359375 47.26171875 C5 45 5 45 6 42 C6.7642842 27.11115592 5.09939381 14.08404004 0 0 Z " fill="#848484" transform="translate(128,45)"/>
<path d="M0 0 C0.99 0.33 1.98 0.66 3 1 C3.7758516 3.15774577 4.44649985 5.35379986 5.0625 7.5625 C7.45957816 15.09972423 11.23062573 19.02623752 18 23 C20.94403977 24.51978454 23.89019124 25.85823446 27 27 C23.0076406 28.28929201 20.7502147 27.61757727 16.94921875 26.0859375 C13.8833443 24.37789522 12.12768483 21.74359359 10 19 C8.948125 18.319375 7.89625 17.63875 6.8125 16.9375 C3.73269607 14.81585729 2.98335609 13.54008191 2 10 C-0.71486934 13.97610786 -0.22440753 18.13901977 -0.125 22.75 C-0.11597656 23.54277344 -0.10695313 24.33554688 -0.09765625 25.15234375 C-0.07417012 27.10169281 -0.03830137 29.05088575 0 31 C-2.76977977 27.86440026 -3.38309577 25.87708908 -3.3984375 21.71875 C-3.40230469 20.71199219 -3.40617187 19.70523438 -3.41015625 18.66796875 C-3.39855469 17.62253906 -3.38695313 16.57710937 -3.375 15.5 C-3.38660156 14.45457031 -3.39820312 13.40914062 -3.41015625 12.33203125 C-3.40628906 11.32527344 -3.40242188 10.31851563 -3.3984375 9.28125 C-3.39505371 8.36408203 -3.39166992 7.44691406 -3.38818359 6.50195312 C-2.93525987 3.58273151 -1.93419693 2.18965691 0 0 Z " fill="#969696" transform="translate(26,60)"/>
<path d="M0 0 C2 1 2 1 2 1 Z M-3 1 C0 2 0 2 0 2 Z M-3 3 C-4.90780092 6.81560184 -10.07914699 8.58040258 -13.86328125 10.3046875 C-17.35458038 12.1916412 -20.13004086 14.48879166 -23 17.1875 C-23.52400391 17.67726318 -24.04800781 18.16702637 -24.58789062 18.67163086 C-31.63645934 25.37896283 -35.74172601 31.81890795 -39 41 C-39.58150379 42.54235769 -40.16467185 44.08408961 -40.75 45.625 C-41.1625 46.73875 -41.575 47.8525 -42 49 C-42.33 49 -42.66 49 -43 49 C-42.18064525 34.79785095 -34.36521264 22.89472917 -24.3125 13.25 C-19.285678 8.92568418 -9.73897751 0.75367416 -3 3 Z " fill="#757575" transform="translate(58,15)"/>
<path d="M0 0 C1.02083333 0.875 2.04166667 1.75 3.0625 2.625 C3.70832031 3.17285156 4.35414062 3.72070312 5.01953125 4.28515625 C6.24887919 5.34962123 7.45909096 6.43717731 8.63671875 7.55859375 C18.50081829 16.75394078 29.55745233 18.17931887 42.5 18.1875 C44.02947266 18.20586914 44.02947266 18.20586914 45.58984375 18.22460938 C50.89140189 18.23495052 54.97917987 17.83631847 60 16 C62.375 16.375 62.375 16.375 64 17 C62.80375 17.474375 61.6075 17.94875 60.375 18.4375 C59.70210937 18.70433594 59.02921875 18.97117187 58.3359375 19.24609375 C44.35991821 23.7567488 27.51956692 22.54420521 14.4609375 16.07421875 C9.91279247 13.52875985 6.92115559 10.27009687 4 6 C3.195625 5.21625 2.39125 4.4325 1.5625 3.625 C0 2 0 2 0 0 Z " fill="#AEAEAE" transform="translate(34,106)"/>
<path d="M0 0 C0 0.66 0 1.32 0 2 C-0.96099609 2.47179687 -0.96099609 2.47179687 -1.94140625 2.953125 C-7.7049112 5.80481448 -13.33116073 8.7781783 -18.83349609 12.11035156 C-21.62957016 13.25852532 -23.77365515 13.16478792 -26.7890625 13.046875 C-27.89507812 13.00433594 -29.00109375 12.96179688 -30.140625 12.91796875 C-31.29046875 12.86253906 -32.4403125 12.80710938 -33.625 12.75 C-34.78257813 12.71003906 -35.94015625 12.67007813 -37.1328125 12.62890625 C-45.74327495 12.25672505 -45.74327495 12.25672505 -48 10 C-47.09459473 9.97812622 -47.09459473 9.97812622 -46.17089844 9.95581055 C-30.52504807 9.53379609 -13.54866105 0 0 0 Z " fill="#949494" transform="translate(111,123)"/>
<path d="M0 0 C0.66 0 1.32 0 2 0 C2 8.58 2 17.16 2 26 C-10.375 26 -10.375 26 -16 24 C-16 23.67 -16 23.34 -16 23 C-10.72 23.33 -5.44 23.66 0 24 C0 18.06 0 12.12 0 6 C-0.66 6 -1.32 6 -2 6 C-2.33 10.29 -2.66 14.58 -3 19 C-3.33 19 -3.66 19 -4 19 C-4.37936772 7.15529673 -4.37936772 7.15529673 -2 2 C-1.34 1.34 -0.68 0.68 0 0 Z " fill="#CECECE" transform="translate(69,64)"/>
<path d="M0 0 C0.66 0.33 1.32 0.66 2 1 C4.77162766 9.31488297 3.22134271 18.08086584 0 26 C-0.66 26 -1.32 26 -2 26 C-2.20625 26.721875 -2.4125 27.44375 -2.625 28.1875 C-4.41351448 31.84582507 -6.77966671 33.5525467 -10 36 C-10.78375 36.598125 -11.5675 37.19625 -12.375 37.8125 C-13.179375 38.4003125 -13.179375 38.4003125 -14 39 C-14.66 38.67 -15.32 38.34 -16 38 C-15.236875 37.443125 -14.47375 36.88625 -13.6875 36.3125 C-10.98407812 33.98629978 -9.72593563 32.07666785 -8 29 C-6 26.1875 -6 26.1875 -4 24 C-3.01 24 -2.02 24 -1 24 C-0.8312433 21.125109 -0.66492885 18.25011104 -0.5 15.375 C-0.45230469 14.56675781 -0.40460938 13.75851563 -0.35546875 12.92578125 C-0.10986222 8.61012369 0.05598658 4.32496331 0 0 Z " fill="#AAAAAA" transform="translate(114,83)"/>
<path d="M0 0 C0.66 0.33 1.32 0.66 2 1 C1.56655273 1.38744385 1.13310547 1.7748877 0.68652344 2.17407227 C-1.30113115 3.96067734 -3.27550491 5.76136631 -5.25 7.5625 C-5.93191406 8.17158203 -6.61382812 8.78066406 -7.31640625 9.40820312 C-13.01757369 14.63888587 -16.25012266 19.73246703 -19 27 C-19.32613281 27.62132813 -19.65226562 28.24265625 -19.98828125 28.8828125 C-24.15811016 37.60886374 -23.58222643 48.52313639 -24 58 C-24.33 58 -24.66 58 -25 58 C-25.47256715 39.68620542 -25.40064053 25.52021026 -12.49609375 11.2265625 C-8.52862843 7.19405676 -4.45931983 3.48334769 0 0 Z " fill="#9E9E9E" transform="translate(42,25)"/>
<path d="M0 0 C3.28468406 4.92702609 3.1579265 9.54310548 3.1875 15.375 C3.20167969 16.64085938 3.21585938 17.90671875 3.23046875 19.2109375 C2.98885461 23.18323775 2.22893265 26.24034042 1 30 C-0.32 30 -1.64 30 -3 30 C-3.31453125 29.20335938 -3.6290625 28.40671875 -3.953125 27.5859375 C-6.21757674 21.97937324 -8.36764746 16.84313672 -12 12 C-12.5775 11.21625 -13.155 10.4325 -13.75 9.625 C-14.1625 9.08875 -14.575 8.5525 -15 8 C-10.60216355 10.04185264 -7.65894644 11.55468654 -5.5859375 16.1015625 C-5.18632813 17.26429687 -4.78671875 18.42703125 -4.375 19.625 C-3.18809903 24.14263377 -3.18809903 24.14263377 0 27 C0 18.09 0 9.18 0 0 Z " fill="#A6A6A6" transform="translate(126,60)"/>
<path d="M0 0 C7.650975 0 12.4150547 1.2585538 19 5 C19.99 6.485 19.99 6.485 21 8 C14.40095271 6.47214176 8.12610791 4.92382423 2 2 C2.04640625 2.74765625 2.0928125 3.4953125 2.140625 4.265625 C2.17671875 5.25046875 2.2128125 6.2353125 2.25 7.25 C2.29640625 8.22453125 2.3428125 9.1990625 2.390625 10.203125 C2 13 2 13 -2 17 C-1.34 11.39 -0.68 5.78 0 0 Z " fill="#929292" transform="translate(86,67)"/>
<path d="M0 0 C0.94939453 -0.00257812 1.89878906 -0.00515625 2.87695312 -0.0078125 C3.85728516 -0.00007812 4.83761719 0.00765625 5.84765625 0.015625 C6.82412109 0.00789062 7.80058594 0.00015625 8.80664062 -0.0078125 C13.90092075 0.0060025 18.14488538 0.23373285 22.91015625 2.265625 C22.91015625 2.595625 22.91015625 2.925625 22.91015625 3.265625 C22.2459668 3.24467773 21.58177734 3.22373047 20.89746094 3.20214844 C4.52559792 2.43668693 4.52559792 2.43668693 -11.11328125 6.48828125 C-11.76554687 6.74480469 -12.4178125 7.00132813 -13.08984375 7.265625 C-13.74984375 6.935625 -14.40984375 6.605625 -15.08984375 6.265625 C-14.45046875 6.1625 -13.81109375 6.059375 -13.15234375 5.953125 C-12.47171875 5.72625 -11.79109375 5.499375 -11.08984375 5.265625 C-10.75984375 4.275625 -10.42984375 3.285625 -10.08984375 2.265625 C-6.68331969 0.48843699 -3.80941319 0.01002383 0 0 Z " fill="#939393" transform="translate(65.08984375,14.734375)"/>
<path d="M0 0 C0.66 0 1.32 0 2 0 C2 1.32 2 2.64 2 4 C2.66 4 3.32 4 4 4 C5.50077431 7.41085071 6.90334727 10.68587863 8 14.25 C8.76201877 17.00235781 8.76201877 17.00235781 10.5625 18.4375 C12.85052707 20.92448594 12.69227349 23.738099 13 27 C6.11206024 21.32757902 2.42091654 12.43305052 0 4 C0 2.68 0 1.36 0 0 Z " fill="#747474" transform="translate(15,88)"/>
<path d="M0 0 C11.39653213 -0.33193783 19.00412781 0.61760728 29 6 C29 6.66 29 7.32 29 8 C27.53932801 7.54917531 26.08151968 7.08906463 24.625 6.625 C23.81289062 6.36976562 23.00078125 6.11453125 22.1640625 5.8515625 C20 5 20 5 18 3 C15.10323749 2.53166115 12.28852921 2.16392273 9.375 1.875 C6.61125 1.58625 3.8475 1.2975 1 1 C1 8.59 1 16.18 1 24 C1.99 24 2.98 24 4 24 C4 24.66 4 25.32 4 26 C2.68 26 1.36 26 0 26 C0 17.42 0 8.84 0 0 Z " fill="#B6B6B6" transform="translate(80,60)"/>
<path d="M0 0 C0.5625 1.9375 0.5625 1.9375 1 4 C0.67 4.33 0.34 4.66 0 5 C-0.46949261 12.94861913 -0.11699982 20.32587564 2 28 C2.66 28 3.32 28 4 28 C5.625 30.5 5.625 30.5 7 33 C4.34278026 32.33569507 2.50771772 31.66303927 0.8125 29.44921875 C-3.7403161 21.63243522 -4.18508588 13.15046699 -2.0625 4.375 C-1 1 -1 1 0 0 Z " fill="#969696" transform="translate(38,42)"/>
<path d="M0 0 C0.66 0.33 1.32 0.66 2 1 C1.31164062 1.56654297 1.31164062 1.56654297 0.609375 2.14453125 C-5.30178852 7.44719265 -8.080772 13.2966081 -9.34375 21.1328125 C-9.61327919 26.6806217 -7.78080043 31.82719875 -6 37 C-6.66 37 -7.32 37 -8 37 C-11.39230448 28.80193085 -13.13269433 19.32843444 -9.73828125 10.84765625 C-7.99995789 7.99993102 -6.22406753 5.91796585 -3.8125 3.625 C-3.09707031 2.93664063 -2.38164063 2.24828125 -1.64453125 1.5390625 C-1.10183594 1.03117187 -0.55914062 0.52328125 0 0 Z " fill="#747474" transform="translate(48,33)"/>
<path d="M0 0 C1.08839774 0.88967344 2.17044608 1.78711574 3.25 2.6875 C4.15492187 3.43580078 4.15492187 3.43580078 5.078125 4.19921875 C9.32058368 8.17436804 11.73459174 12.14487213 13.8125 17.5625 C14.25207031 18.67753906 14.69164063 19.79257812 15.14453125 20.94140625 C16.01485662 24.05311752 15.9049708 25.04237818 15 28 C13.705826 25.43873936 12.41459216 22.87606642 11.125 20.3125 C10.76019531 19.59126953 10.39539063 18.87003906 10.01953125 18.12695312 C8.52853408 15.1585133 7.09688671 12.25259751 5.90625 9.1484375 C4.61818145 6.09482672 2.35015956 4.28831325 0 2 C0 1.34 0 0.68 0 0 Z " fill="#8C8C8C" transform="translate(110,36)"/>
<path d="M0 0 C5.00280648 7.50420972 4.30310654 22.28090698 2.60302734 31.046875 C1.68439466 34.47980264 0.44922332 37.75865677 -1 41 C-1.33 41 -1.66 41 -2 41 C-2.17791204 36.46324303 -2.0461125 33.092225 0 29 C0.33 28.67 0.66 28.34 1 28 C1.51325422 18.6708497 0.72022084 9.29856547 0 0 Z " fill="#BEBEBE" transform="translate(132,58)"/>
<path d="M0 0 C2.12570312 0.47603774 4.25054427 0.95592598 6.375 1.4375 C8.15003906 1.83775391 8.15003906 1.83775391 9.9609375 2.24609375 C13 3 13 3 15 4 C16.3734635 4.15004973 17.7528526 4.24838006 19.1328125 4.31640625 C19.93847656 4.35830078 20.74414062 4.40019531 21.57421875 4.44335938 C22.41597656 4.48267578 23.25773437 4.52199219 24.125 4.5625 C24.97449219 4.60568359 25.82398437 4.64886719 26.69921875 4.69335938 C28.79928223 4.79954236 30.89961948 4.90028497 33 5 C31 7 31 7 29.07421875 7.265625 C18.99814913 7.19966055 9.29632514 6.01017947 0 2 C0 1.34 0 0.68 0 0 Z " fill="#7B7B7B" transform="translate(50,130)"/>
<path d="M0 0 C3.00024947 -0.05444001 5.99949039 -0.0938836 9 -0.125 C9.83917969 -0.14175781 10.67835937 -0.15851562 11.54296875 -0.17578125 C18.725555 -0.23146021 25.06488934 0.67761929 31.5 4.125 C33.2325 5.053125 33.2325 5.053125 35 6 C32.64050361 6.8284454 31.44423466 7.17085948 29.0703125 6.2578125 C28.42835937 5.88398438 27.78640625 5.51015625 27.125 5.125 C21.24350542 1.71992419 14.75233622 1.78009958 8.125 1.4375 C7.34125 1.39431641 6.5575 1.35113281 5.75 1.30664062 C3.83349351 1.20146649 1.91676667 1.10032075 0 1 C0 0.67 0 0.34 0 0 Z " fill="#C2C2C2" transform="translate(66,22)"/>
<path d="M0 0 C0 3.19311356 -0.58234526 4.24258363 -2 7 C-4.62393862 15.69501228 -4.60304543 24.99539889 -5 34 C-5.33 34 -5.66 34 -6 34 C-6.08825361 30.52099751 -6.14080635 27.04228883 -6.1875 23.5625 C-6.21263672 22.58861328 -6.23777344 21.61472656 -6.26367188 20.61132812 C-6.33108754 13.89223374 -6.18276285 6.46651441 -1.39526367 1.25219727 C-0.93482666 0.83897217 -0.47438965 0.42574707 0 0 Z " fill="#B7B7B7" transform="translate(23,49)"/>
<path d="M0 0 C3.37722923 0.5131634 6.68485387 1.17854786 10 2 C10 2.33 10 2.66 10 3 C1.42 3 -7.16 3 -16 3 C-10.56881207 -1.07339095 -6.58384336 -0.4909712 0 0 Z " fill="#767676" transform="translate(79,24)"/>
<path d="M0 0 C0.66 0.33 1.32 0.66 2 1 C0.11194805 6.16730007 -1.33897263 8.81685936 -6 12 C-6.763125 12.5775 -7.52625 13.155 -8.3125 13.75 C-9.1478125 14.36875 -9.1478125 14.36875 -10 15 C-10.66 14.67 -11.32 14.34 -12 14 C-10.8553125 13.1646875 -10.8553125 13.1646875 -9.6875 12.3125 C-6.98407812 9.98629978 -5.72593563 8.07666785 -4 5 C-2.68962066 3.31522656 -1.36176922 1.64351457 0 0 Z " fill="#979797" transform="translate(110,107)"/>
<path d="M0 0 C0.66 0 1.32 0 2 0 C0.93985784 3.29740769 -0.14186848 4.08807448 -3.15234375 5.95703125 C-4.4078278 6.58808066 -5.66986063 7.20623769 -6.9375 7.8125 C-7.57107422 8.13669922 -8.20464844 8.46089844 -8.85742188 8.79492188 C-13.61153739 11.12948754 -13.61153739 11.12948754 -17 10 C-4.79761905 2.92261905 -4.79761905 2.92261905 0 2 C0 1.34 0 0.68 0 0 Z " fill="#7F7F7F" transform="translate(111,123)"/>
<path d="M0 0 C0 0.66 0 1.32 0 2 C-10.395 2.495 -10.395 2.495 -21 3 C-20.67 2.34 -20.34 1.68 -20 1 C-13.20008281 -1.07640328 -6.94970782 -1.13929636 0 0 Z " fill="#717171" transform="translate(82,13)"/>
<path d="M0 0 C7.85420753 1.81250943 14.45494177 7.4788295 19 14 C16.53199953 12.84826645 14.95216435 11.95216435 13 10 C10.93125966 9.3574765 10.93125966 9.3574765 9 9 C9 8.34 9 7.68 9 7 C8.34 7 7.68 7 7 7 C7 6.01 7 5.02 7 4 C6.1028125 3.7834375 6.1028125 3.7834375 5.1875 3.5625 C3.43849596 3.1127561 1.71322977 2.57107659 0 2 C0 1.34 0 0.68 0 0 Z " fill="#7D7D7D" transform="translate(100,59)"/>
<path d="M0 0 C4.05819183 0.65503282 7.53971282 1.94559121 11.3125 3.5625 C12.38113281 4.01753906 13.44976562 4.47257813 14.55078125 4.94140625 C15.76314453 5.46541016 15.76314453 5.46541016 17 6 C13.94145449 6.97161849 12.01744728 6.99142062 8.9375 6.125 C8.26589844 5.94195312 7.59429687 5.75890625 6.90234375 5.5703125 C2.07001579 4.12160638 2.07001579 4.12160638 0.8125 1.9375 C0.544375 1.298125 0.27625 0.65875 0 0 Z " fill="#929292" transform="translate(45,126)"/>
<path d="M0 0 C5.65241217 0.43480094 10.47739405 2.64422639 15 6 C16.265625 8.16796875 16.265625 8.16796875 17 10 C16.484375 9.731875 15.96875 9.46375 15.4375 9.1875 C13.43315171 8.21102263 11.37772751 7.34009255 9.3125 6.5 C6 5 6 5 5 3 C3.35636866 2.27840576 1.68949614 1.60648579 0 1 C0 0.67 0 0.34 0 0 Z " fill="#979797" transform="translate(96,19)"/>
<path d="M0 0 C5.26053037 -0.31563182 8.44573816 0.33409063 13 3 C13 3.99 13 4.98 13 6 C3.40546697 3.10933941 3.40546697 3.10933941 0 0 Z " fill="#818181" transform="translate(48,118)"/>
<path d="M0 0 C4.27563279 0.47507031 6.16560497 2.95302534 9 6 C10.1446875 7.1446875 10.1446875 7.1446875 11.3125 8.3125 C11.869375 8.869375 12.42625 9.42625 13 10 C12.67 10.99 12.34 11.98 12 13 C10.79557292 11.50260417 9.59114583 10.00520833 8.38671875 8.5078125 C6.87729455 6.74707893 6.87729455 6.74707893 4 5 C4 4.34 4 3.68 4 3 C2.68 2.34 1.36 1.68 0 1 C0 0.67 0 0.34 0 0 Z " fill="#777777" transform="translate(104,34)"/>
<path d="M0 0 C-1.50349377 3.66786393 -3.63728792 5.68910393 -6.625 8.25 C-7.44226562 8.95640625 -8.25953125 9.6628125 -9.1015625 10.390625 C-9.72804688 10.92171875 -10.35453125 11.4528125 -11 12 C-11 9 -11 9 -9.1015625 6.73828125 C-8.28429687 5.93777344 -7.46703125 5.13726562 -6.625 4.3125 C-5.81289063 3.50425781 -5.00078125 2.69601563 -4.1640625 1.86328125 C-2 0 -2 0 0 0 Z " fill="#D7D7D7" transform="translate(40,30)"/>
<path d="M0 0 C0.99 0.495 0.99 0.495 2 1 C2 2.32 2 3.64 2 5 C2.66 5 3.32 5 4 5 C5.60355101 8.50776784 6.22036864 11.14354879 6 15 C1.12832353 10.57120321 0.63288129 6.32881294 0 0 Z " fill="#858585" transform="translate(25,85)"/>
<path d="M0 0 C0.33 0 0.66 0 1 0 C1 6.6 1 13.2 1 20 C1.99 19.67 2.98 19.34 4 19 C3.67 20.32 3.34 21.64 3 23 C2.01 23 1.02 23 0 23 C0 15.41 0 7.82 0 0 Z " fill="#D0D0D0" transform="translate(81,61)"/>
<path d="M0 0 C0 0.99 0 1.98 0 3 C-1.65071396 4.02611949 -3.31970006 5.02308143 -5 6 C-6.78344178 8.06954847 -6.78344178 8.06954847 -8 10 C-8.32899743 6.38102827 -8.44576634 4.60496861 -6.25 1.625 C-4 0 -4 0 0 0 Z " fill="#868686" transform="translate(72,61)"/>
<path d="M0 0 C0.99 0.33 1.98 0.66 3 1 C3.94921875 3.50390625 3.94921875 3.50390625 4.6875 6.5625 C4.93886719 7.57441406 5.19023437 8.58632812 5.44921875 9.62890625 C5.63097656 10.41136719 5.81273437 11.19382812 6 12 C2.98672434 10.49336217 2.38943382 7.96833589 1 5 C0.34 5.66 -0.32 6.32 -1 7 C-1.04254356 5.00045254 -1.04080783 2.99958364 -1 1 C-0.67 0.67 -0.34 0.34 0 0 Z " fill="#989898" transform="translate(26,60)"/>
<path d="M0 0 C5.46727972 2.44462067 9.8047298 6.55749134 12.4375 11.9375 C12.623125 12.618125 12.80875 13.29875 13 14 C8.87371563 11.88109722 7.23590668 10.00599946 5 6 C3.39353148 3.94216721 1.70359326 1.97985163 0 0 Z " fill="#BBBBBB" transform="translate(112,29)"/>
<path d="M0 0 C2 1 2 1 2 1 Z M-3 1 C0 2 0 2 0 2 Z M-3 3 C-4.29474635 5.58949269 -5.32663393 5.96035764 -8 7 C-10.75 7.125 -10.75 7.125 -13 7 C-9.87839899 3.56623888 -7.64008112 1.45330629 -3 3 Z " fill="#737373" transform="translate(58,15)"/>
<path d="M0 0 C0.825 0.28875 1.65 0.5775 2.5 0.875 C6.30795181 2.09898451 10.11270827 3.0616882 14 4 C14 4.66 14 5.32 14 6 C9.03083364 5.48594831 4.70973649 4.76615118 0 3 C0 2.01 0 1.02 0 0 Z " fill="#818181" transform="translate(82,13)"/>
<path d="M0 0 C1 1 2 2 3 3 C3.53625 3.45375 4.0725 3.9075 4.625 4.375 C6.4066588 6.48059676 6.63580052 8.30492384 7 11 C6.01 11 5.02 11 4 11 C3.32880451 9.5437455 2.66318193 8.08492133 2 6.625 C1.62875 5.81289063 1.2575 5.00078125 0.875 4.1640625 C0 2 0 2 0 0 Z " fill="#838383" transform="translate(128,45)"/>
<path d="M0 0 C2.63744638 1.31872319 3.20619668 2.8111975 4.625 5.375 C5.07101563 6.16648437 5.51703125 6.95796875 5.9765625 7.7734375 C7 10 7 10 7 13 C1.26598465 7.56777494 1.26598465 7.56777494 0 4 C0 2.68 0 1.36 0 0 Z " fill="#C0C0C0" transform="translate(26,93)"/>
<path d="M0 0 C5.41390868 0.46671627 9.20517932 1.24297811 14 4 C11.43398445 5.28300777 10.33520676 4.85098078 7.5625 4.25 C6.78003906 4.09015625 5.99757813 3.9303125 5.19140625 3.765625 C2.77158136 2.92019598 1.64830257 1.92920301 0 0 Z " fill="#C2C2C2" transform="translate(88,18)"/>
<path d="M0 0 C1.37562854 1.28965176 2.70766393 2.62689293 4 4 C4 4.66 4 5.32 4 6 C4.66 6 5.32 6 6 6 C6.33 7.65 6.66 9.3 7 11 C6.34 10.67 5.68 10.34 5 10 C5 9.34 5 8.68 5 8 C4.01 7.67 3.02 7.34 2 7 C0 4 0 4 0 0 Z " fill="#A2A2A2" transform="translate(22,100)"/>
<path d="M0 0 C5.445 1.485 5.445 1.485 11 3 C9.68 3.33 8.36 3.66 7 4 C6.01 4.33 5.02 4.66 4 5 C2.64567325 3.68799596 1.31266518 2.35368596 0 1 C0 0.67 0 0.34 0 0 Z " fill="#7A7A7A" transform="translate(45,86)"/>
<path d="M0 0 C1.98 0.66 3.96 1.32 6 2 C6.33 3.98 6.66 5.96 7 8 C4.35247996 5.42215154 2.05567935 3.08351902 0 0 Z " fill="#7A7A7A" transform="translate(103,74)"/>
</svg>
